<svg width="20" height="20" viewBox="0 0 20 20" fill="none" xmlns="http://www.w3.org/2000/svg">
<path d="M2.78884 17.9814H17.2106C18.9517 17.9814 19.8392 17.1107 19.8392 15.3864V6.62248C19.8392 4.8982 18.9517 4.03605 17.2106 4.03605H15.2521C14.5992 4.03605 14.3985 3.90213 14.0217 3.48355L13.3435 2.72998C12.9335 2.26998 12.5067 2.01855 11.636 2.01855H8.30455C7.44241 2.01855 7.01527 2.26998 6.59705 2.72998L5.91884 3.48355C5.55063 3.89355 5.34134 4.03605 4.68848 4.03605H2.78848C1.04741 4.03605 0.159912 4.8982 0.159912 6.62248V15.3864C0.159912 17.1107 1.04777 17.9814 2.78884 17.9814ZM2.81348 16.6336C1.98491 16.6336 1.50777 16.19 1.50777 15.3193V6.69784C1.50777 5.82713 1.98491 5.38356 2.81348 5.38356H5.02313C5.7767 5.38356 6.17848 5.24141 6.59705 4.77284L7.25813 4.03605C7.73527 3.50034 7.97813 3.36641 8.72313 3.36641H11.2174C11.9624 3.36641 12.2053 3.50034 12.6824 4.03605L13.3435 4.77248C13.7621 5.24141 14.1638 5.38356 14.9174 5.38356H17.1856C18.0142 5.38356 18.4917 5.82713 18.4917 6.69784V15.3193C18.4917 16.19 18.0146 16.6336 17.1856 16.6336H2.81348ZM9.99563 15.3028C10.597 15.3045 11.1927 15.1872 11.7485 14.9576C12.3043 14.728 12.8091 14.3907 13.2339 13.9651C13.6588 13.5395 13.9951 13.034 14.2237 12.4778C14.4522 11.9216 14.5685 11.3256 14.5656 10.7243C14.5656 8.17927 12.5399 6.1457 9.99527 6.1457C7.46741 6.1457 5.43348 8.17927 5.43348 10.7243C5.43348 13.2686 7.46741 15.3028 9.99527 15.3028M16.0135 8.68141C16.5828 8.68141 17.0513 8.22141 17.0513 7.65213C17.0513 7.37687 16.942 7.11289 16.7474 6.91825C16.5527 6.72361 16.2887 6.61427 16.0135 6.61427C15.7382 6.61427 15.4742 6.72361 15.2796 6.91825C15.085 7.11289 14.9756 7.37687 14.9756 7.65213C14.9756 8.22141 15.4442 8.68141 16.0135 8.68141ZM9.99563 14.0307C8.1792 14.0307 6.69777 12.5575 6.69777 10.7243C6.69777 8.89105 8.17098 7.4182 9.99563 7.4182C10.4299 7.41768 10.8601 7.50284 11.2615 7.6688C11.6628 7.83476 12.0275 8.07825 12.3347 8.38535C12.6418 8.69244 12.8853 9.05711 13.0513 9.45845C13.2173 9.8598 13.3025 10.2899 13.3021 10.7243C13.3026 11.1586 13.2174 11.5888 13.0514 11.9902C12.8854 12.3916 12.6419 12.7563 12.3348 13.0634C12.0276 13.3706 11.6629 13.6141 11.2616 13.7801C10.8602 13.946 10.43 14.0312 9.99563 14.0307Z" fill="white"/>
</svg>
