<svg width="57" height="273" viewBox="0 0 57 273" fill="none" xmlns="http://www.w3.org/2000/svg">
<rect width="57" height="57" rx="28.5" fill="#AAE515" fill-opacity="0.7"/>
<path d="M26.3334 35.1665V21.5832L22.0001 25.9165L19.6667 23.4998L28.0001 15.1665L36.3334 23.4998L34.0001 25.9165L29.6667 21.5832V35.1665H26.3334ZM18.0001 41.8332C17.0834 41.8332 16.299 41.5071 15.6467 40.8548C14.9945 40.2026 14.6679 39.4176 14.6667 38.4998V33.4998H18.0001V38.4998H38.0001V33.4998H41.3334V38.4998C41.3334 39.4165 41.0073 40.2015 40.3551 40.8548C39.7029 41.5082 38.9179 41.8343 38.0001 41.8332H18.0001Z" fill="white"/>
<line x1="29" y1="60" x2="29" y2="105" stroke="white"/>
<rect x="0.5" y="108.5" width="56" height="56" rx="28" stroke="white"/>
<path d="M33.625 144H22.375C21.8777 144 21.4008 143.802 21.0492 143.451C20.6975 143.099 20.5 142.622 20.5 142.125V139.312H22.375V142.125H33.625V139.312H35.5V142.125C35.5 142.622 35.3025 143.099 34.9508 143.451C34.5992 143.802 34.1223 144 33.625 144ZM14.875 135.562H41.125V137.438H14.875V135.562ZM35.5 133.688H33.625V130.875H22.375V133.688H20.5V130.875C20.5 130.378 20.6975 129.901 21.0492 129.549C21.4008 129.198 21.8777 129 22.375 129H33.625C34.1223 129 34.5992 129.198 34.9508 129.549C35.3025 129.901 35.5 130.378 35.5 130.875V133.688ZM41.125 130.875H39.25V125.25H33.625V123.375H41.125V130.875ZM16.75 130.875H14.875V123.375H22.375V125.25H16.75V130.875ZM22.375 149.625H14.875V142.125H16.75V147.75H22.375V149.625ZM41.125 149.625H33.625V147.75H39.25V142.125H41.125V149.625Z" fill="white"/>
<line x1="29" y1="168" x2="29" y2="213" stroke="white"/>
<rect x="0.5" y="216.5" width="56" height="56" rx="28" stroke="white"/>
<g clip-path="url(#clip0_192_52)">
<path d="M34.8408 238.216L36.1592 239.534L25.1875 250.506L19.8408 245.159L21.1592 243.841L25.1875 247.869L34.8408 238.216ZM28 229.5C29.377 229.5 30.7051 229.676 31.9844 230.027C33.2637 230.379 34.46 230.882 35.5732 231.536C36.6865 232.19 37.6973 232.972 38.6055 233.88C39.5137 234.788 40.2949 235.804 40.9492 236.927C41.6035 238.05 42.1064 239.246 42.458 240.516C42.8096 241.785 42.9902 243.113 43 244.5C43 245.877 42.8242 247.205 42.4727 248.484C42.1211 249.764 41.6182 250.96 40.9639 252.073C40.3096 253.187 39.5283 254.197 38.6201 255.105C37.7119 256.014 36.6963 256.795 35.5732 257.449C34.4502 258.104 33.2539 258.606 31.9844 258.958C30.7148 259.31 29.3867 259.49 28 259.5C26.623 259.5 25.2949 259.324 24.0156 258.973C22.7363 258.621 21.54 258.118 20.4268 257.464C19.3135 256.81 18.3027 256.028 17.3945 255.12C16.4863 254.212 15.7051 253.196 15.0508 252.073C14.3965 250.95 13.8936 249.759 13.542 248.499C13.1904 247.239 13.0098 245.906 13 244.5C13 243.123 13.1758 241.795 13.5273 240.516C13.8789 239.236 14.3818 238.04 15.0361 236.927C15.6904 235.813 16.4717 234.803 17.3799 233.895C18.2881 232.986 19.3037 232.205 20.4268 231.551C21.5498 230.896 22.7412 230.394 24.001 230.042C25.2607 229.69 26.5938 229.51 28 229.5ZM28 257.625C29.2012 257.625 30.3584 257.469 31.4717 257.156C32.585 256.844 33.6299 256.404 34.6064 255.838C35.583 255.271 36.4717 254.583 37.2725 253.772C38.0732 252.962 38.7568 252.078 39.3232 251.121C39.8896 250.164 40.334 249.119 40.6562 247.986C40.9785 246.854 41.1348 245.691 41.125 244.5C41.125 243.299 40.9688 242.142 40.6562 241.028C40.3438 239.915 39.9043 238.87 39.3379 237.894C38.7715 236.917 38.083 236.028 37.2725 235.228C36.4619 234.427 35.5781 233.743 34.6211 233.177C33.6641 232.61 32.6191 232.166 31.4863 231.844C30.3535 231.521 29.1914 231.365 28 231.375C26.7988 231.375 25.6416 231.531 24.5283 231.844C23.415 232.156 22.3701 232.596 21.3936 233.162C20.417 233.729 19.5283 234.417 18.7275 235.228C17.9268 236.038 17.2432 236.922 16.6768 237.879C16.1104 238.836 15.666 239.881 15.3438 241.014C15.0215 242.146 14.8652 243.309 14.875 244.5C14.875 245.701 15.0312 246.858 15.3438 247.972C15.6562 249.085 16.0957 250.13 16.6621 251.106C17.2285 252.083 17.917 252.972 18.7275 253.772C19.5381 254.573 20.4219 255.257 21.3789 255.823C22.3359 256.39 23.3809 256.834 24.5137 257.156C25.6465 257.479 26.8086 257.635 28 257.625Z" fill="white"/>
</g>
<defs>
<clipPath id="clip0_192_52">
<rect width="30" height="30" fill="white" transform="translate(13 229.5)"/>
</clipPath>
</defs>
</svg>
