<svg width="31" height="31" viewBox="0 0 31 31" fill="none" xmlns="http://www.w3.org/2000/svg">
<path d="M12.2718 20.6667C9.92526 20.6667 7.93931 19.854 6.31396 18.2286C4.68861 16.6033 3.87593 14.6173 3.87593 12.2708C3.87593 9.92427 4.68861 7.93832 6.31396 6.31297C7.93931 4.68761 9.92526 3.87494 12.2718 3.87494C14.6183 3.87494 16.6043 4.68761 18.2296 6.31297C19.855 7.93832 20.6677 9.92427 20.6677 12.2708C20.6677 13.218 20.517 14.1114 20.2156 14.951C19.9142 15.7906 19.5052 16.5333 18.9885 17.1792L26.2218 24.4125C26.4587 24.6493 26.5771 24.9507 26.5771 25.3167C26.5771 25.6827 26.4587 25.984 26.2218 26.2209C25.985 26.4577 25.6836 26.5761 25.3177 26.5761C24.9517 26.5761 24.6503 26.4577 24.4135 26.2209L17.1801 18.9875C16.5343 19.5042 15.7916 19.9132 14.952 20.2146C14.1124 20.516 13.219 20.6667 12.2718 20.6667ZM12.2718 18.0833C13.8864 18.0833 15.2588 17.5182 16.389 16.388C17.5192 15.2578 18.0843 13.8854 18.0843 12.2708C18.0843 10.6562 17.5192 9.28381 16.389 8.1536C15.2588 7.02339 13.8864 6.45828 12.2718 6.45828C10.6572 6.45828 9.28481 7.02339 8.15459 8.1536C7.02438 9.28381 6.45927 10.6562 6.45927 12.2708C6.45927 13.8854 7.02438 15.2578 8.15459 16.388C9.28481 17.5182 10.6572 18.0833 12.2718 18.0833Z" fill="white" fill-opacity="0.9"/>
</svg>
