<svg width="31" height="31" viewBox="0 0 31 31" fill="none" xmlns="http://www.w3.org/2000/svg">
<path d="M5.1676 23.2499C4.80163 23.2499 4.49486 23.1261 4.24729 22.8786C3.99972 22.631 3.87593 22.3242 3.87593 21.9583C3.87593 21.5923 3.99972 21.2855 4.24729 21.0379C4.49486 20.7904 4.80163 20.6666 5.1676 20.6666H25.8343C26.2003 20.6666 26.5071 20.7904 26.7547 21.0379C27.0022 21.2855 27.126 21.5923 27.126 21.9583C27.126 22.3242 27.0022 22.631 26.7547 22.8786C26.5071 23.1261 26.2003 23.2499 25.8343 23.2499H5.1676ZM5.1676 16.7916C4.80163 16.7916 4.49486 16.6678 4.24729 16.4202C3.99972 16.1727 3.87593 15.8659 3.87593 15.4999C3.87593 15.1339 3.99972 14.8272 4.24729 14.5796C4.49486 14.332 4.80163 14.2082 5.1676 14.2082H25.8343C26.2003 14.2082 26.5071 14.332 26.7547 14.5796C27.0022 14.8272 27.126 15.1339 27.126 15.4999C27.126 15.8659 27.0022 16.1727 26.7547 16.4202C26.5071 16.6678 26.2003 16.7916 25.8343 16.7916H5.1676ZM5.1676 10.3332C4.80163 10.3332 4.49486 10.2094 4.24729 9.96186C3.99972 9.71429 3.87593 9.40752 3.87593 9.04155C3.87593 8.67557 3.99972 8.3688 4.24729 8.12123C4.49486 7.87366 4.80163 7.74988 5.1676 7.74988H25.8343C26.2003 7.74988 26.5071 7.87366 26.7547 8.12123C27.0022 8.3688 27.126 8.67557 27.126 9.04155C27.126 9.40752 27.0022 9.71429 26.7547 9.96186C26.5071 10.2094 26.2003 10.3332 25.8343 10.3332H5.1676Z" fill="white" fill-opacity="0.9"/>
</svg>
